{"title":"Colorado.Territory.1949.HQTV.720p.x264.AC3.[FrOnkY]","uid":10547108,"size":3460673108,"categoryP":"video","categoryS":"hd___movies","magnet":"?xt=urn:btih:9b8b3071fab61dcf6b16cf58be7ed6dd8a382303&amp;dn=Colorado.Territory.1949.HQTV.720p.x264.AC3.%5BFrOnkY%5D&amp;tr=udp%3A%2F%2Ftracker.openbittorrent.com%3A80&amp;tr=udp%3A%2F%2Fopen.demonii.com%3A1337&amp;tr=udp%3A%2F%2Ftracker.coppersurfer.tk%3A6969&amp;tr=udp%3A%2F%2Fexodus.desync.com%3A6969","seeders":1,"leechers":1,"uploader":"HDmEntEs","files":-1,"time":1405300222,"description":"WESTEteRNal\n\n\nColorado.Territory.(Juntos.Hasta.La.Muerte).1949.HQTV.720p.x264.AC3.[FrOnkY].mkv\n\nFormat                                   : Matroska\nFormat version                           : Version 4 / Version 2\nFile size                                : 3.22 GiB\nDuration                                 : 1h 34mn\nOverall bit rate                         : 4 886 Kbps\nWriting application                      : mkvmerge v6.6.0 ('The Edge Of The In Between') built on Dec  1 2013 17:55:00\nWriting library                          : libebml v1.3.0 + libmatroska v1.4.1\nAttachment                               : Yes / Yes / Yes / Yes / Yes / Yes\n\nVideo\nID                                       : 1\nFormat                                   : AVC\nFormat/Info                              : Advanced Video Codec\nFormat profile                           : &lt;a class=&quot;__cf_email__&quot; href=&quot;/cdn-cgi/l/email-protection&quot; data-cfemail=&quot;bef6d7d9d6fef28a908f&quot;&gt;[email&amp;#160;protected]&lt;/a&gt;&lt;script cf-hash='f9e31' type=&quot;text/javascript&quot;&gt;\n/* &lt;![CDATA[ */!function(){try{var t=&quot;currentScript&quot;in document?document.currentScript:function(){for(var t=document.getElementsByTagName(&quot;script&quot;),e=t.length;e--;)if(t[e].getAttribute(&quot;cf-hash&quot;))return t[e]}();if(t&amp;&amp;t.previousSibling){var e,r,n,i,c=t.previousSibling,a=c.getAttribute(&quot;data-cfemail&quot;);if(a){for(e=&quot;&quot;,r=parseInt(a.substr(0,2),16),n=2;a.length-n;n+=2)i=parseInt(a.substr(n,2),16)^r,e+=String.fromCharCode(i);e=document.createTextNode(e),c.parentNode.replaceChild(e,c)}}}catch(u){}}();/* ]]&gt; */&lt;/script&gt;\nFormat settings, CABAC                   : Yes\nFormat settings, ReFrames                : 11 frames\nCodec ID                                 : V_MPEG4/ISO/AVC\nDuration                                 : 1h 34mn\nBit rate                                 : 4 444 Kbps\nWidth                                    : 988 pixels\nHeight                                   : 720 pixels\nDisplay aspect ratio                     : 1.372\nFrame rate mode                          : Constant\nFrame rate                               : 23.976 fps\nColor space                              : YUV\nChroma subsampling                       : 4:2:0\nBit depth                                : 8 bits\nScan type                                : Progressive\nBits/(Pixel*Frame)                       : 0.261\nStream size                              : 2.91 GiB (90%)\nWriting library                          : x264 core 133 r2334 a3ac64b\nLanguage                                 : English\nDefault                                  : Yes\nForced                                   : No\n\nAudio #1\nID                                       : 2\nFormat                                   : AC-3\nFormat/Info                              : Audio Coding 3\nMode extension                           : CM (complete main)\nFormat settings, Endianness              : Big\nCodec ID                                 : A_AC3\nDuration                                 : 1h 34mn\nBit rate mode                            : Constant\nBit rate                                 : 192 Kbps\nChannel(s)                               : 2 channels\nChannel positions                        : Front: L R\nSampling rate                            : 48.0 KHz\nBit depth                                : 16 bits\nStream size                              : 130 MiB (4%)\nLanguage                                 : English\nDefault                                  : Yes\nForced                                   : No\n\nAudio #2\nID                                       : 3\nFormat                                   : AC-3\nFormat/Info                              : Audio Coding 3\nMode extension                           : CM (complete main)\nFormat settings, Endianness              : Big\nCodec ID                                 : A_AC3\nDuration                                 : 1h 34mn\nBit rate mode                            : Constant\nBit rate                                 : 192 Kbps\nChannel(s)                               : 2 channels\nChannel positions                        : Front: L R\nSampling rate                            : 48.0 KHz\nBit depth                                : 16 bits\nStream size                              : 130 MiB (4%)\nLanguage                                 : Spanish\nDefault                                  : No\nForced                                   : No\n\nText #1\nID                                       : 4\nFormat                                   : UTF-8\nCodec ID                                 : S_TEXT/UTF8\nCodec ID/Info                            : UTF-8 Plain Text\nLanguage                                 : Spanish\nDefault                                  : Yes\nForced                                   : No\n\nText #2\nID                                       : 5\nFormat                                   : UTF-8\nCodec ID                                 : S_TEXT/UTF8\nCodec ID/Info                            : UTF-8 Plain Text\nTitle                                    : for\nLanguage                                 : Spanish\nDefault                                  : No\nForced                                   : No\n\nText #3\nID                                       : 6\nFormat                                   : UTF-8\nCodec ID                                 : S_TEXT/UTF8\nCodec ID/Info                            : UTF-8 Plain Text\nLanguage                                 : French\nDefault                                  : No\nForced                                   : No\n\nMenu\n00:00:00.000                             : en:Chapter 01\n00:11:52.467                             : en:Chapter 02\n00:22:41.467                             : en:Chapter 03\n00:32:30.901                             : en:Chapter 04\n00:45:31.869                             : en:Chapter 05\n00:53:46.336                             : en:Chapter 06\n00:59:36.336                             : en:Chapter 07\n01:02:49.369                             : en:Chapter 08\n01:13:07.803                             : en:Chapter 09\n01:26:10.137                             : en:Chapter 10\n01:34:19.038                             : en:Chapter 11\n01:34:19.972                             : en:Chapter 12\n\n\nDVD - HQTV\n &lt;a href=&quot;\nhttps://box.jisko.net/i/45102cbf.png&quot; rel=&quot;nofollow&quot; target=&quot;_NEW&quot;&gt;\nhttps://box.jisko.net/i/45102cbf.png&lt;/a&gt; &lt;a href=&quot;\nhttps://box.jisko.net/i/cffb7df4.png&quot; rel=&quot;nofollow&quot; target=&quot;_NEW&quot;&gt;\nhttps://box.jisko.net/i/cffb7df4.png&lt;/a&gt;\n\n\nSCREENS\n &lt;a href=&quot;\nhttps://box.jisko.net/i/97318997.png&quot; rel=&quot;nofollow&quot; target=&quot;_NEW&quot;&gt;\nhttps://box.jisko.net/i/97318997.png&lt;/a&gt;\n &lt;a href=&quot;\nhttps://box.jisko.net/i/40ef9d3d.png&quot; rel=&quot;nofollow&quot; target=&quot;_NEW&quot;&gt;\nhttps://box.jisko.net/i/40ef9d3d.png&lt;/a&gt;\n &lt;a href=&quot;\nhttps://box.jisko.net/i/c2bf6efb.png&quot; rel=&quot;nofollow&quot; target=&quot;_NEW&quot;&gt;\nhttps://box.jisko.net/i/c2bf6efb.png&lt;/a&gt;\n &lt;a href=&quot;\nhttps://box.jisko.net/i/4304d03c.png&quot; rel=&quot;nofollow&quot; target=&quot;_NEW&quot;&gt;\nhttps://box.jisko.net/i/4304d03c.png&lt;/a&gt;","torrent":{"xt":"urn:btih:9b8b3071fab61dcf6b16cf58be7ed6dd8a382303","amp;dn":"Colorado.Territory.1949.HQTV.720p.x264.AC3.%5BFrOnkY%5D","amp;tr":["udp%3A%2F%2Ftracker.openbittorrent.com%3A80","udp%3A%2F%2Fopen.demonii.com%3A1337","udp%3A%2F%2Ftracker.coppersurfer.tk%3A6969","udp%3A%2F%2Fexodus.desync.com%3A6969"],"infoHash":"9b8b3071fab61dcf6b16cf58be7ed6dd8a382303","infoHashBuffer":{"type":"Buffer","data":[155,139,48,113,250,182,29,207,107,22,207,88,190,126,214,221,138,56,35,3]},"announce":[],"urlList":[]}}